P3
3 2
255
0 0 0 0 127 0 85 0 0 85 127 0 170 0 0 170 127 0 