P3
3 2
255
0 0 0	0 85 0	0 170 0	127 0 0	127 85 0	127 170 0	